{"title":"dappy - no regrets (2011-dd2.0-pal)","uid":6937647,"size":164812800,"categoryP":"audio","categoryS":"other","magnet":"?xt=urn:btih:1a0926ff16702d20b6c8978b290fd3e0ae8d6570&amp;dn=dappy+-+no+regrets+%282011-dd2.0-pal%29&amp;tr=udp%3A%2F%2Ftracker.openbittorrent.com%3A80&amp;tr=udp%3A%2F%2Fopen.demonii.com%3A1337&amp;tr=udp%3A%2F%2Ftracker.coppersurfer.tk%3A6969&amp;tr=udp%3A%2F%2Fexodus.desync.com%3A6969","seeders":1,"leechers":0,"uploader":null,"files":1,"time":1325883231,"description":"\nFormat                         : MPEG-PS\nFile size                      : 157 MiB\nDuration                       : 4mn 9s\nOverall bit rate mode          : Variable\nOverall bit rate               : 5 293 Kbps\n\nVideo\nID                             : 224 (0xE0)\nFormat                         : MPEG Video\nFormat version                 : Version 2\nFormat profile                 : Main@Main\nFormat settings, BVOP          : Yes\nFormat settings, Matrix        : Default\nFormat settings, GOP           : M=3, N=12\nDuration                       : 4mn 9s\nBit rate mode                  : Variable\nBit rate                       : 4 963 Kbps\nMaximum bit rate               : 7 000 Kbps\nWidth                          : 720 pixels\nHeight                         : 576 pixels\nDisplay aspect ratio           : 16:9\nFrame rate                     : 25.000 fps\nStandard                       : PAL\nColor space                    : YUV\nChroma subsampling             : 4:2:0\nBit depth                      : 8 bits\nScan type                      : Interlaced\nScan order                     : Top Field First\nCompression mode               : Lossy\nBits/(Pixel*Frame)             : 0.479\nStream size                    : 147 MiB (94%)\n\nAudio\nID                             : 192 (0xC0)\nFormat                         : MPEG Audio\nFormat version                 : Version 1\nFormat profile                 : Layer 2\nDuration                       : 4mn 9s\nBit rate mode                  : Constant\nBit rate                       : 224 Kbps\nChannel(s)                     : 2 channels\nSampling rate                  : 48.0 KHz\nCompression mode               : Lossy\nDelay relative to video        : -152ms\nStream size                    : 6.65 MiB (4%)\n\nScreens:\n &lt;a href=&quot;\nhttp://i28.fastpic.ru/big/2012/0106/79/0ff9eae586142d86fa2a226a8de52179.jpg&quot; rel=&quot;nofollow&quot; target=&quot;_NEW&quot;&gt;\nhttp://i28.fastpic.ru/big/2012/0106/79/0ff9eae586142d86fa2a226a8de52179.jpg&lt;/a&gt;","torrent":{"xt":"urn:btih:1a0926ff16702d20b6c8978b290fd3e0ae8d6570","amp;dn":"dappy+-+no+regrets+%282011-dd2.0-pal%29","amp;tr":["udp%3A%2F%2Ftracker.openbittorrent.com%3A80","udp%3A%2F%2Fopen.demonii.com%3A1337","udp%3A%2F%2Ftracker.coppersurfer.tk%3A6969","udp%3A%2F%2Fexodus.desync.com%3A6969"],"infoHash":"1a0926ff16702d20b6c8978b290fd3e0ae8d6570","infoHashBuffer":{"type":"Buffer","data":[26,9,38,255,22,112,45,32,182,200,151,139,41,15,211,224,174,141,101,112]},"announce":[],"urlList":[]}}